<svg width="18" height="10" viewBox="0 0 18 10" fill="none" xmlns="http://www.w3.org/2000/svg">
<path d="M17.1051 4.50983C17.3513 4.7518 17.3547 5.14751 17.1127 5.39368L13.1697 9.4053C12.9277 9.65147 12.532 9.65488 12.2858 9.41292C12.0397 9.17095 12.0363 8.77524 12.2782 8.52907L15.7831 4.96319L12.2173 1.45826C11.9711 1.2163 11.9677 0.820583 12.2096 0.57441C12.4516 0.328237 12.8473 0.324826 13.0935 0.566791L17.1051 4.50983ZM1.33992 5.71272C0.994758 5.7157 0.712534 5.4383 0.709559 5.09313C0.706583 4.74797 0.983983 4.46574 1.32915 4.46277L1.33992 5.71272ZM16.6724 5.58054L1.33992 5.71272L1.32915 4.46277L16.6616 4.33059L16.6724 5.58054Z" fill="#F5F5F5"/>
</svg>
